<?xml version="1.0" encoding="UTF-8"?>
<!-- Generator: Adobe Illustrator 21.0.0, SVG Export Plug-In . SVG Version: 6.00 Build 0)  -->
<svg version="1.1" id="Capa_1" xmlns="http://www.w3.org/2000/svg" xmlns:xlink="http://www.w3.org/1999/xlink" x="0px" y="0px" viewBox="0 0 357.9 352.2" style="enable-background:new 0 0 357.9 352.2;" xml:space="preserve">
<g>
	<path d="M254.6,348.2c32.4-13.5,60.6-35.5,94.9-45.9c5.5-1.8,8-11,1.8-13.5c-34.3-14.7-65.5-36.7-101.6-47.1   c-6.7-1.8-13.5,7.3-7.3,12.2c9.2,7.3,16.5,15.9,25.1,24.5c-52.6-1.2-105.3,0-157.3-9.2c-28.2-4.9-60-11.6-81.4-31.8   C3,213,26.3,182.4,50.2,168.9c20.8-11.6,110.8-31.8,79.6-72.2c-18.4-23.9-43.5-30-71-37.3c-8-1.8-15.3-4.9-22-8.6   c-26.3-14.1,16.5-32.4,26.9-33c20.8-1.2,42.2,4.9,62.4,9.8c6.1,1.8,8.6-7.3,2.4-9.8c-28.8-11-77.7-26.3-102.8,0   C4.3,41,18.3,60.6,43.4,69.8c16.5,6.1,108.3,29.4,65.5,56.3c-28.2,17.7-61.8,22.6-88.1,44.1C2.4,185.4-1.9,213,7.3,234.4   c11.6,25.7,45.9,36.7,70.4,43.5c61.2,16.5,127.3,16.5,190.3,14.7c-9.8,14.7-19,31.2-25.1,47.7C241.1,347,249.7,350.7,254.6,348.2z    M276.6,268.7c17.1,8,34.3,17.7,51.4,26.3c-21.4,9.2-40.4,20.8-61.2,31.8c8-12.9,17.1-25.1,19-39.2c0.6-3.1-1.2-5.5-3.7-6.7   C281.5,276.6,279.7,272.3,276.6,268.7z"/>
</g>
</svg>